<svg width="100" height="127" viewBox="0 0 100 127" fill="none" xmlns="http://www.w3.org/2000/svg">
<path d="M65.9446 27.1775C53.6067 23.6207 45.7898 23.8281 32.1987 27.931C31.6612 28.0932 31.3285 28.4328 30.7677 28.4621C29.5671 28.525 29.2222 26.5004 28.3844 25.638L21.2649 18.3092C19.9809 17.016 19.2946 16.2211 18.5506 13.8674C18.2027 12.0275 18.5506 8.68521 18.5506 8.68521C18.5506 8.68521 19.0456 5.4502 22.2521 3.74986C24.0843 3.2984 25.1097 3.25828 26.9407 3.74986L33.8502 6.95784C35.4779 7.58061 36.3964 7.57713 38.0453 6.95784C40.8124 3.58821 42.6152 2.12896 46.4354 0.541875C49.4366 -0.237111 50.9722 -0.121844 53.5917 0.541875C57.5412 2.48355 59.4279 3.84307 61.9818 6.95784C63.7169 7.68827 64.6866 7.65764 66.4236 6.95784L72.8396 3.74986C77.4031 2.45363 80.04 2.94085 81.97 7.45138C82.997 9.85138 82.567 10.4736 82.4634 12.8803C82.4409 13.4032 82.0874 14.6598 81.4765 15.1012L72.4975 24.7066C71.4159 25.8637 70.8863 27.8886 69.3294 28.1799C68.165 28.3977 67.0828 27.5057 65.9446 27.1775Z" fill="#34C759"/>
<path d="M59.2673 90.3654C61.2415 105.665 64.0832 112.769 71.6057 126.147C113.516 117.025 108.138 50.0246 61.3768 33.1638L64.9429 42.4924L59.514 41.0118L57.2931 45.7004L50.1369 33.1152L47.4224 46.9342L44.4611 42.4924L39.279 45.7004L41.2533 33.1152C30.1752 34.6205 23.4345 39.1399 10.1605 56.0647C1.92462 68.6769 -0.354462 76.1828 0.0430102 90.3654C3.12338 112.398 10.8699 118.688 27.681 126.887L28.1746 126.147C35.4926 113.703 37.7917 105.478 41.2533 90.3654H31.8761L50.1369 56.0647L68.3978 90.3654H59.2673Z" fill="#34C759"/>
</svg>
