<svg width="276" height="215" viewBox="0 0 276 215" fill="none" xmlns="http://www.w3.org/2000/svg">
<path d="M8.57812 184.258C4.05566 184.258 1.21973 181.186 1.21973 176.255C1.21973 171.324 4.05566 168.241 8.57812 168.241C13.0898 168.241 15.9258 171.324 15.9258 176.255C15.9258 181.186 13.0898 184.258 8.57812 184.258ZM8.57812 181.895C11.3389 181.895 13.1006 179.703 13.1006 176.255C13.1006 172.796 11.3389 170.604 8.57812 170.604C5.80664 170.604 4.05566 172.796 4.05566 176.255C4.05566 179.703 5.80664 181.895 8.57812 181.895ZM22.9082 184.226C19.5674 184.226 17.3975 182.002 17.3975 178.307C17.3975 174.633 19.5889 172.377 22.9082 172.377C26.2275 172.377 28.4189 174.622 28.4189 178.307C28.4189 182.002 26.249 184.226 22.9082 184.226ZM22.9082 182.109C24.6055 182.109 25.7012 180.734 25.7012 178.307C25.7012 175.89 24.6055 174.504 22.9082 174.504C21.2217 174.504 20.1152 175.89 20.1152 178.307C20.1152 180.734 21.2109 182.109 22.9082 182.109ZM31.4697 188.05C30.6855 188.05 30.1377 187.545 30.1377 186.643V173.763C30.1377 172.882 30.6748 172.388 31.4375 172.388C32.2002 172.388 32.748 172.882 32.748 173.763V174.579H32.8018C33.4463 173.258 34.7354 172.42 36.3896 172.42C39.2793 172.42 41.1162 174.665 41.1162 178.307C41.1162 181.938 39.29 184.183 36.4326 184.183C34.7783 184.183 33.4893 183.388 32.8662 182.109H32.8125V186.643C32.8125 187.545 32.2539 188.05 31.4697 188.05ZM35.5732 181.991C37.3027 181.991 38.377 180.562 38.377 178.307C38.377 176.062 37.3027 174.622 35.5732 174.622C33.9082 174.622 32.8018 176.094 32.791 178.307C32.8018 180.541 33.9082 181.991 35.5732 181.991ZM47.2285 184.226C44.8223 184.226 43.1357 183.302 42.5879 181.938C42.5127 181.744 42.4805 181.572 42.4805 181.411C42.4805 180.767 42.9531 180.358 43.5977 180.358C44.0381 180.358 44.4141 180.562 44.7578 181.014C45.3594 181.884 46.0469 182.271 47.3252 182.271C48.5713 182.271 49.3984 181.744 49.3984 180.885C49.3984 180.197 48.9688 179.821 47.7979 179.553L45.9502 179.134C43.7266 178.629 42.6309 177.533 42.6309 175.879C42.6309 173.763 44.457 172.377 47.2715 172.377C49.4629 172.377 51.1602 173.451 51.5146 174.762C51.5469 174.901 51.5684 175.03 51.5684 175.159C51.5684 175.718 51.2139 176.115 50.5371 176.115C50.1504 176.115 49.7637 175.976 49.5166 175.621C48.9902 174.837 48.335 174.343 47.207 174.343C46.0361 174.343 45.2305 174.912 45.2305 175.729C45.2305 176.395 45.7246 176.846 46.9062 177.114L48.7217 177.512C51.1279 178.06 52.084 178.93 52.084 180.616C52.084 182.797 50.1289 184.226 47.2285 184.226ZM55.9512 179.037C55.1885 179.037 54.7803 178.564 54.7588 177.78L54.6191 169.842C54.6191 169.767 54.6084 169.691 54.6084 169.638C54.6084 168.8 55.1562 168.284 55.9619 168.284C56.7676 168.284 57.3047 168.8 57.3047 169.638C57.3047 169.691 57.2939 169.767 57.2939 169.842L57.1543 177.78C57.1328 178.564 56.7139 179.037 55.9512 179.037ZM55.9512 184.215C55.0811 184.215 54.3936 183.538 54.3936 182.689C54.3936 181.841 55.0811 181.175 55.9512 181.175C56.832 181.175 57.5195 181.841 57.5195 182.689C57.5195 183.538 56.832 184.215 55.9512 184.215ZM70.7539 184.183C69.8945 184.183 69.3789 183.656 69.3789 182.743V177.888L64.5342 170.508C64.3408 170.196 64.2549 169.896 64.2549 169.584C64.2549 168.854 64.8457 168.316 65.6299 168.316C66.21 168.316 66.543 168.521 66.8975 169.122L70.7432 175.245H70.8076L74.6641 169.122C75.0078 168.542 75.3516 168.316 75.8994 168.316C76.6729 168.316 77.2637 168.854 77.2637 169.573C77.2637 169.896 77.1777 170.186 76.9736 170.508L72.1396 177.888V182.743C72.1396 183.656 71.624 184.183 70.7539 184.183ZM81.7539 184.226C78.4131 184.226 76.2432 182.002 76.2432 178.307C76.2432 174.633 78.4346 172.377 81.7539 172.377C85.0732 172.377 87.2646 174.622 87.2646 178.307C87.2646 182.002 85.0947 184.226 81.7539 184.226ZM81.7539 182.109C83.4512 182.109 84.5469 180.734 84.5469 178.307C84.5469 175.89 83.4512 174.504 81.7539 174.504C80.0674 174.504 78.9609 175.89 78.9609 178.307C78.9609 180.734 80.0566 182.109 81.7539 182.109ZM92.9688 184.204C90.498 184.204 88.9297 182.604 88.9297 179.972V173.795C88.9297 172.903 89.4775 172.388 90.2617 172.388C91.0459 172.388 91.6045 172.903 91.6045 173.806V179.435C91.6045 181.067 92.3994 181.948 93.9033 181.948C95.4502 181.948 96.4062 180.853 96.4062 179.198V173.795C96.4062 172.903 96.9648 172.388 97.749 172.388C98.5225 172.388 99.0811 172.903 99.0811 173.806V182.861C99.0811 183.721 98.5654 184.215 97.8027 184.215C97.0293 184.215 96.5029 183.721 96.5029 182.861V182.023H96.4492C95.8477 183.409 94.6982 184.204 92.9688 184.204ZM102.604 184.215C101.799 184.215 101.272 183.688 101.272 182.808V173.741C101.272 172.903 101.788 172.388 102.551 172.388C103.292 172.388 103.818 172.903 103.818 173.741V174.611H103.872C104.184 173.279 105.172 172.42 106.311 172.42C106.729 172.42 107.052 172.527 107.256 172.71C107.503 172.914 107.632 173.236 107.632 173.677C107.632 174.096 107.503 174.407 107.234 174.622C106.977 174.848 106.579 174.966 106.053 174.977C104.527 174.987 103.947 175.943 103.947 177.329V182.808C103.947 183.688 103.41 184.215 102.604 184.215ZM114.614 184.215C113.841 184.215 113.314 183.742 113.314 182.872V169.691C113.314 168.789 113.873 168.284 114.657 168.284C115.441 168.284 115.989 168.789 115.989 169.691V174.568H116.054C116.709 173.236 117.998 172.42 119.62 172.42C122.488 172.42 124.314 174.665 124.314 178.307C124.314 181.948 122.499 184.183 119.609 184.183C117.944 184.183 116.666 183.377 115.989 182.056H115.936V182.872C115.936 183.731 115.388 184.215 114.614 184.215ZM118.793 181.991C120.501 181.991 121.575 180.573 121.575 178.307C121.575 176.051 120.501 174.622 118.793 174.622C117.139 174.622 115.979 176.094 115.979 178.307C115.979 180.541 117.139 181.991 118.793 181.991ZM130.029 184.204C127.559 184.204 125.99 182.604 125.99 179.972V173.795C125.99 172.903 126.538 172.388 127.322 172.388C128.106 172.388 128.665 172.903 128.665 173.806V179.435C128.665 181.067 129.46 181.948 130.964 181.948C132.511 181.948 133.467 180.853 133.467 179.198V173.795C133.467 172.903 134.025 172.388 134.81 172.388C135.583 172.388 136.142 172.903 136.142 173.806V182.861C136.142 183.721 135.626 184.215 134.863 184.215C134.09 184.215 133.563 183.721 133.563 182.861V182.023H133.51C132.908 183.409 131.759 184.204 130.029 184.204ZM142.587 184.183C139.719 184.183 137.86 181.916 137.86 178.296C137.86 174.697 139.719 172.42 142.587 172.42C144.22 172.42 145.509 173.269 146.11 174.525H146.175V169.691C146.175 168.789 146.723 168.284 147.507 168.284C148.291 168.284 148.85 168.789 148.85 169.691V182.872C148.85 183.731 148.302 184.215 147.528 184.215C146.755 184.215 146.175 183.742 146.175 182.872V181.98H146.121C145.573 183.291 144.349 184.183 142.587 184.183ZM143.393 181.991C145.079 181.991 146.186 180.562 146.186 178.307C146.186 176.072 145.079 174.622 143.393 174.622C141.674 174.622 140.6 176.051 140.6 178.307C140.6 180.573 141.663 181.991 143.393 181.991ZM156.004 188.286C153.823 188.275 152.147 187.438 151.385 186.213C151.224 185.944 151.159 185.687 151.159 185.407C151.159 184.816 151.6 184.376 152.276 184.376C152.652 184.376 152.921 184.505 153.254 184.827C154.146 185.719 154.94 186.148 156.025 186.159C157.841 186.181 158.926 185.16 158.926 183.646V181.83H158.872C158.281 183.055 156.938 183.882 155.306 183.882C152.448 183.882 150.622 181.669 150.622 178.167C150.622 174.601 152.427 172.42 155.359 172.42C156.981 172.42 158.238 173.258 158.894 174.547H158.937V173.752C158.937 172.871 159.517 172.388 160.279 172.388C161.053 172.388 161.611 172.871 161.611 173.752V183.635C161.611 186.503 159.517 188.308 156.004 188.286ZM156.122 181.798C157.83 181.798 158.947 180.412 158.947 178.188C158.947 175.976 157.83 174.536 156.122 174.536C154.436 174.536 153.361 175.954 153.361 178.188C153.361 180.444 154.436 181.798 156.122 181.798ZM168.852 184.226C165.371 184.226 163.319 182.045 163.319 178.35C163.319 174.719 165.414 172.377 168.701 172.377C171.816 172.377 173.943 174.59 173.943 177.684C173.943 178.479 173.492 178.951 172.697 178.951H165.983V179.037C165.983 180.938 167.09 182.163 168.83 182.163C170.033 182.163 170.817 181.744 171.677 180.648C171.956 180.337 172.203 180.219 172.579 180.219C173.181 180.219 173.653 180.605 173.653 181.25C173.653 181.454 173.589 181.69 173.471 181.927C172.719 183.377 171.021 184.226 168.852 184.226ZM166.005 177.189H171.322C171.269 175.535 170.216 174.45 168.712 174.45C167.208 174.45 166.112 175.557 166.005 177.189ZM176.414 181.186V174.676H175.694C175.028 174.676 174.62 174.278 174.62 173.634C174.62 173 175.028 172.613 175.694 172.613H176.414V171.099C176.414 170.239 176.93 169.702 177.757 169.702C178.573 169.702 179.089 170.239 179.089 171.099V172.613H180.324C180.99 172.613 181.398 173 181.398 173.634C181.398 174.278 180.99 174.676 180.324 174.676H179.089V180.605C179.089 181.465 179.39 181.841 180.163 181.905L180.356 181.927C181.065 181.991 181.431 182.292 181.431 182.915C181.431 183.699 180.743 184.118 179.519 184.118H179.411C177.424 184.118 176.414 183.13 176.414 181.186ZM188.8 188.05C188.016 188.05 187.468 187.545 187.468 186.643V173.763C187.468 172.882 188.005 172.388 188.768 172.388C189.53 172.388 190.078 172.882 190.078 173.763V174.579H190.132C190.776 173.258 192.065 172.42 193.72 172.42C196.609 172.42 198.446 174.665 198.446 178.307C198.446 181.938 196.62 184.183 193.763 184.183C192.108 184.183 190.819 183.388 190.196 182.109H190.143V186.643C190.143 187.545 189.584 188.05 188.8 188.05ZM192.903 181.991C194.633 181.991 195.707 180.562 195.707 178.307C195.707 176.062 194.633 174.622 192.903 174.622C191.238 174.622 190.132 176.094 190.121 178.307C190.132 180.541 191.238 181.991 192.903 181.991ZM201.583 184.215C200.799 184.215 200.24 183.71 200.24 182.808V169.691C200.24 168.789 200.799 168.284 201.583 168.284C202.367 168.284 202.915 168.789 202.915 169.691V182.808C202.915 183.71 202.367 184.215 201.583 184.215ZM208.533 184.183C206.331 184.183 204.73 182.797 204.73 180.745C204.73 178.726 206.288 177.512 209.06 177.34L212.078 177.168V176.352C212.078 175.159 211.272 174.472 209.951 174.472C208.909 174.472 208.232 174.826 207.566 175.804C207.287 176.169 206.933 176.341 206.481 176.341C205.826 176.341 205.354 175.911 205.354 175.267C205.354 175.02 205.418 174.783 205.536 174.536C206.116 173.215 207.878 172.377 210.059 172.377C212.884 172.377 214.721 173.87 214.721 176.158V182.872C214.721 183.731 214.173 184.215 213.421 184.215C212.69 184.215 212.186 183.774 212.143 182.979V182.185H212.089C211.434 183.42 210.005 184.183 208.533 184.183ZM209.35 182.163C210.854 182.163 212.078 181.153 212.078 179.778V178.908L209.436 179.069C208.146 179.155 207.405 179.735 207.405 180.638C207.405 181.572 208.189 182.163 209.35 182.163ZM218.212 184.215C217.428 184.215 216.88 183.71 216.88 182.808V173.741C216.88 172.914 217.363 172.388 218.158 172.388C218.942 172.388 219.479 172.914 219.479 173.741V174.536H219.533C220.146 173.183 221.327 172.398 223.078 172.398C225.592 172.398 227.021 174.01 227.021 176.642V182.808C227.021 183.71 226.473 184.215 225.688 184.215C224.904 184.215 224.346 183.71 224.346 182.808V177.179C224.346 175.567 223.594 174.665 222.068 174.665C220.532 174.665 219.555 175.771 219.555 177.404V182.808C219.555 183.71 218.996 184.215 218.212 184.215ZM230.501 184.215C229.717 184.215 229.169 183.71 229.169 182.808V173.741C229.169 172.914 229.652 172.388 230.447 172.388C231.231 172.388 231.769 172.914 231.769 173.741V174.536H231.822C232.435 173.183 233.616 172.398 235.367 172.398C237.881 172.398 239.31 174.01 239.31 176.642V182.808C239.31 183.71 238.762 184.215 237.978 184.215C237.193 184.215 236.635 183.71 236.635 182.808V177.179C236.635 175.567 235.883 174.665 234.357 174.665C232.821 174.665 231.844 175.771 231.844 177.404V182.808C231.844 183.71 231.285 184.215 230.501 184.215ZM246.518 184.226C243.037 184.226 240.985 182.045 240.985 178.35C240.985 174.719 243.08 172.377 246.367 172.377C249.482 172.377 251.609 174.59 251.609 177.684C251.609 178.479 251.158 178.951 250.363 178.951H243.649V179.037C243.649 180.938 244.756 182.163 246.496 182.163C247.699 182.163 248.483 181.744 249.343 180.648C249.622 180.337 249.869 180.219 250.245 180.219C250.847 180.219 251.319 180.605 251.319 181.25C251.319 181.454 251.255 181.69 251.137 181.927C250.385 183.377 248.688 184.226 246.518 184.226ZM243.671 177.189H248.988C248.935 175.535 247.882 174.45 246.378 174.45C244.874 174.45 243.778 175.557 243.671 177.189ZM254.671 184.215C253.865 184.215 253.339 183.688 253.339 182.808V173.741C253.339 172.903 253.854 172.388 254.617 172.388C255.358 172.388 255.885 172.903 255.885 173.741V174.611H255.938C256.25 173.279 257.238 172.42 258.377 172.42C258.796 172.42 259.118 172.527 259.322 172.71C259.569 172.914 259.698 173.236 259.698 173.677C259.698 174.096 259.569 174.407 259.301 174.622C259.043 174.848 258.646 174.966 258.119 174.977C256.594 174.987 256.014 175.943 256.014 177.329V182.808C256.014 183.688 255.477 184.215 254.671 184.215ZM262.244 174.558C261.557 174.558 261.073 174.085 261.073 173.376V169.455C261.073 168.757 261.557 168.284 262.244 168.284C262.932 168.284 263.404 168.757 263.404 169.455V173.376C263.404 174.085 262.932 174.558 262.244 174.558ZM270.172 184.226C267.766 184.226 266.079 183.302 265.531 181.938C265.456 181.744 265.424 181.572 265.424 181.411C265.424 180.767 265.896 180.358 266.541 180.358C266.981 180.358 267.357 180.562 267.701 181.014C268.303 181.884 268.99 182.271 270.269 182.271C271.515 182.271 272.342 181.744 272.342 180.885C272.342 180.197 271.912 179.821 270.741 179.553L268.894 179.134C266.67 178.629 265.574 177.533 265.574 175.879C265.574 173.763 267.4 172.377 270.215 172.377C272.406 172.377 274.104 173.451 274.458 174.762C274.49 174.901 274.512 175.03 274.512 175.159C274.512 175.718 274.157 176.115 273.48 176.115C273.094 176.115 272.707 175.976 272.46 175.621C271.934 174.837 271.278 174.343 270.15 174.343C268.979 174.343 268.174 174.912 268.174 175.729C268.174 176.395 268.668 176.846 269.85 177.114L271.665 177.512C274.071 178.06 275.027 178.93 275.027 180.616C275.027 182.797 273.072 184.226 270.172 184.226ZM46.6055 210.215C45.7998 210.215 45.2627 209.721 45.2627 208.818V200.676H44.5537C43.9521 200.676 43.5225 200.311 43.5225 199.655C43.5225 199.032 43.9521 198.646 44.5537 198.646H45.2627V197.636C45.2627 195.412 46.3477 194.392 48.3994 194.381C49.8174 194.381 50.4512 194.832 50.4512 195.498C50.4512 195.906 50.2578 196.153 49.8604 196.271C49.6885 196.314 49.5059 196.336 49.2695 196.347C48.292 196.368 47.8945 196.798 47.8945 197.754V198.646H49.334C49.9248 198.646 50.3545 199.032 50.3545 199.655C50.3545 200.311 49.9248 200.676 49.334 200.676H47.9375V208.818C47.9375 209.721 47.4004 210.215 46.6055 210.215ZM56.585 210.226C53.1045 210.226 51.0527 208.045 51.0527 204.35C51.0527 200.719 53.1475 198.377 56.4346 198.377C59.5498 198.377 61.6768 200.59 61.6768 203.684C61.6768 204.479 61.2256 204.951 60.4307 204.951H53.7168V205.037C53.7168 206.938 54.8232 208.163 56.5635 208.163C57.7666 208.163 58.5508 207.744 59.4102 206.648C59.6895 206.337 59.9365 206.219 60.3125 206.219C60.9141 206.219 61.3867 206.605 61.3867 207.25C61.3867 207.454 61.3223 207.69 61.2041 207.927C60.4521 209.377 58.7549 210.226 56.585 210.226ZM53.7383 203.189H59.0557C59.002 201.535 57.9492 200.45 56.4453 200.45C54.9414 200.45 53.8457 201.557 53.7383 203.189ZM68.4658 210.226C64.9854 210.226 62.9336 208.045 62.9336 204.35C62.9336 200.719 65.0283 198.377 68.3154 198.377C71.4307 198.377 73.5576 200.59 73.5576 203.684C73.5576 204.479 73.1064 204.951 72.3115 204.951H65.5977V205.037C65.5977 206.938 66.7041 208.163 68.4443 208.163C69.6475 208.163 70.4316 207.744 71.291 206.648C71.5703 206.337 71.8174 206.219 72.1934 206.219C72.7949 206.219 73.2676 206.605 73.2676 207.25C73.2676 207.454 73.2031 207.69 73.085 207.927C72.333 209.377 70.6357 210.226 68.4658 210.226ZM65.6191 203.189H70.9365C70.8828 201.535 69.8301 200.45 68.3262 200.45C66.8223 200.45 65.7266 201.557 65.6191 203.189ZM76.7051 210.215C75.9209 210.215 75.3623 209.71 75.3623 208.808V195.691C75.3623 194.789 75.9209 194.284 76.7051 194.284C77.4893 194.284 78.0371 194.789 78.0371 195.691V208.808C78.0371 209.71 77.4893 210.215 76.7051 210.215ZM81.7109 197.013C80.8838 197.013 80.2285 196.368 80.2285 195.562C80.2285 194.746 80.8838 194.112 81.7109 194.112C82.5488 194.112 83.2041 194.746 83.2041 195.562C83.2041 196.368 82.5488 197.013 81.7109 197.013ZM81.7109 210.215C80.8945 210.215 80.3789 209.678 80.3789 208.808V199.795C80.3789 198.936 80.8945 198.388 81.7109 198.388C82.5273 198.388 83.0537 198.936 83.0537 199.806V208.808C83.0537 209.678 82.5273 210.215 81.7109 210.215ZM86.6309 210.215C85.8467 210.215 85.2988 209.71 85.2988 208.808V199.741C85.2988 198.914 85.7822 198.388 86.5771 198.388C87.3613 198.388 87.8984 198.914 87.8984 199.741V200.536H87.9521C88.5645 199.183 89.7461 198.398 91.4971 198.398C94.0107 198.398 95.4395 200.01 95.4395 202.642V208.808C95.4395 209.71 94.8916 210.215 94.1074 210.215C93.3232 210.215 92.7646 209.71 92.7646 208.808V203.179C92.7646 201.567 92.0127 200.665 90.4873 200.665C88.9512 200.665 87.9736 201.771 87.9736 203.404V208.808C87.9736 209.71 87.415 210.215 86.6309 210.215ZM102.497 214.286C100.316 214.275 98.6406 213.438 97.8779 212.213C97.7168 211.944 97.6523 211.687 97.6523 211.407C97.6523 210.816 98.0928 210.376 98.7695 210.376C99.1455 210.376 99.4141 210.505 99.7471 210.827C100.639 211.719 101.434 212.148 102.519 212.159C104.334 212.181 105.419 211.16 105.419 209.646V207.83H105.365C104.774 209.055 103.432 209.882 101.799 209.882C98.9414 209.882 97.1152 207.669 97.1152 204.167C97.1152 200.601 98.9199 198.42 101.853 198.42C103.475 198.42 104.731 199.258 105.387 200.547H105.43V199.752C105.43 198.871 106.01 198.388 106.772 198.388C107.546 198.388 108.104 198.871 108.104 199.752V209.635C108.104 212.503 106.01 214.308 102.497 214.286ZM102.615 207.798C104.323 207.798 105.44 206.412 105.44 204.188C105.44 201.976 104.323 200.536 102.615 200.536C100.929 200.536 99.8545 201.954 99.8545 204.188C99.8545 206.444 100.929 207.798 102.615 207.798ZM118.03 210.183C115.828 210.183 114.228 208.797 114.228 206.745C114.228 204.726 115.785 203.512 118.557 203.34L121.575 203.168V202.352C121.575 201.159 120.77 200.472 119.448 200.472C118.406 200.472 117.729 200.826 117.063 201.804C116.784 202.169 116.43 202.341 115.979 202.341C115.323 202.341 114.851 201.911 114.851 201.267C114.851 201.02 114.915 200.783 115.033 200.536C115.613 199.215 117.375 198.377 119.556 198.377C122.381 198.377 124.218 199.87 124.218 202.158V208.872C124.218 209.731 123.67 210.215 122.918 210.215C122.188 210.215 121.683 209.774 121.64 208.979V208.185H121.586C120.931 209.42 119.502 210.183 118.03 210.183ZM118.847 208.163C120.351 208.163 121.575 207.153 121.575 205.778V204.908L118.933 205.069C117.644 205.155 116.902 205.735 116.902 206.638C116.902 207.572 117.687 208.163 118.847 208.163ZM132.199 210.215C131.415 210.215 130.856 209.71 130.856 208.808V195.691C130.856 194.789 131.415 194.284 132.199 194.284C132.983 194.284 133.531 194.789 133.531 195.691V208.808C133.531 209.71 132.983 210.215 132.199 210.215ZM137.205 197.013C136.378 197.013 135.723 196.368 135.723 195.562C135.723 194.746 136.378 194.112 137.205 194.112C138.043 194.112 138.698 194.746 138.698 195.562C138.698 196.368 138.043 197.013 137.205 197.013ZM137.205 210.215C136.389 210.215 135.873 209.678 135.873 208.808V199.795C135.873 198.936 136.389 198.388 137.205 198.388C138.021 198.388 138.548 198.936 138.548 199.806V208.808C138.548 209.678 138.021 210.215 137.205 210.215ZM141.534 207.186V200.676H140.814C140.148 200.676 139.74 200.278 139.74 199.634C139.74 199 140.148 198.613 140.814 198.613H141.534V197.099C141.534 196.239 142.05 195.702 142.877 195.702C143.693 195.702 144.209 196.239 144.209 197.099V198.613H145.444C146.11 198.613 146.519 199 146.519 199.634C146.519 200.278 146.11 200.676 145.444 200.676H144.209V206.605C144.209 207.465 144.51 207.841 145.283 207.905L145.477 207.927C146.186 207.991 146.551 208.292 146.551 208.915C146.551 209.699 145.863 210.118 144.639 210.118H144.531C142.544 210.118 141.534 209.13 141.534 207.186ZM148.925 207.186V200.676H148.205C147.539 200.676 147.131 200.278 147.131 199.634C147.131 199 147.539 198.613 148.205 198.613H148.925V197.099C148.925 196.239 149.44 195.702 150.268 195.702C151.084 195.702 151.6 196.239 151.6 197.099V198.613H152.835C153.501 198.613 153.909 199 153.909 199.634C153.909 200.278 153.501 200.676 152.835 200.676H151.6V206.605C151.6 207.465 151.9 207.841 152.674 207.905L152.867 207.927C153.576 207.991 153.941 208.292 153.941 208.915C153.941 209.699 153.254 210.118 152.029 210.118H151.922C149.935 210.118 148.925 209.13 148.925 207.186ZM156.992 210.215C156.208 210.215 155.649 209.71 155.649 208.808V195.691C155.649 194.789 156.208 194.284 156.992 194.284C157.776 194.284 158.324 194.789 158.324 195.691V208.808C158.324 209.71 157.776 210.215 156.992 210.215ZM165.661 210.226C162.181 210.226 160.129 208.045 160.129 204.35C160.129 200.719 162.224 198.377 165.511 198.377C168.626 198.377 170.753 200.59 170.753 203.684C170.753 204.479 170.302 204.951 169.507 204.951H162.793V205.037C162.793 206.938 163.899 208.163 165.64 208.163C166.843 208.163 167.627 207.744 168.486 206.648C168.766 206.337 169.013 206.219 169.389 206.219C169.99 206.219 170.463 206.605 170.463 207.25C170.463 207.454 170.398 207.69 170.28 207.927C169.528 209.377 167.831 210.226 165.661 210.226ZM162.814 203.189H168.132C168.078 201.535 167.025 200.45 165.521 200.45C164.018 200.45 162.922 201.557 162.814 203.189ZM178.305 210.215C177.521 210.215 176.962 209.71 176.962 208.808V195.691C176.962 194.789 177.521 194.284 178.305 194.284C179.089 194.284 179.637 194.789 179.637 195.691V208.808C179.637 209.71 179.089 210.215 178.305 210.215ZM186.952 210.226C183.611 210.226 181.441 208.002 181.441 204.307C181.441 200.633 183.633 198.377 186.952 198.377C190.271 198.377 192.463 200.622 192.463 204.307C192.463 208.002 190.293 210.226 186.952 210.226ZM186.952 208.109C188.649 208.109 189.745 206.734 189.745 204.307C189.745 201.89 188.649 200.504 186.952 200.504C185.266 200.504 184.159 201.89 184.159 204.307C184.159 206.734 185.255 208.109 186.952 208.109ZM195.514 210.215C194.729 210.215 194.182 209.71 194.182 208.808V199.741C194.182 198.914 194.665 198.388 195.46 198.388C196.244 198.388 196.781 198.914 196.781 199.741V200.536H196.835C197.447 199.183 198.629 198.398 200.38 198.398C202.894 198.398 204.322 200.01 204.322 202.642V208.808C204.322 209.71 203.774 210.215 202.99 210.215C202.206 210.215 201.647 209.71 201.647 208.808V203.179C201.647 201.567 200.896 200.665 199.37 200.665C197.834 200.665 196.856 201.771 196.856 203.404V208.808C196.856 209.71 196.298 210.215 195.514 210.215ZM211.53 210.226C208.05 210.226 205.998 208.045 205.998 204.35C205.998 200.719 208.093 198.377 211.38 198.377C214.495 198.377 216.622 200.59 216.622 203.684C216.622 204.479 216.171 204.951 215.376 204.951H208.662V205.037C208.662 206.938 209.769 208.163 211.509 208.163C212.712 208.163 213.496 207.744 214.355 206.648C214.635 206.337 214.882 206.219 215.258 206.219C215.859 206.219 216.332 206.605 216.332 207.25C216.332 207.454 216.268 207.69 216.149 207.927C215.397 209.377 213.7 210.226 211.53 210.226ZM208.684 203.189H214.001C213.947 201.535 212.895 200.45 211.391 200.45C209.887 200.45 208.791 201.557 208.684 203.189ZM219.77 210.215C218.985 210.215 218.427 209.71 218.427 208.808V195.691C218.427 194.789 218.985 194.284 219.77 194.284C220.554 194.284 221.102 194.789 221.102 195.691V208.808C221.102 209.71 220.554 210.215 219.77 210.215ZM225.012 214.232C223.809 214.232 223.153 213.781 223.153 212.965C223.153 212.417 223.54 212.062 224.163 212.062C224.389 212.062 224.496 212.073 224.743 212.073C225.345 212.073 225.968 211.762 226.365 210.763L226.559 210.204L222.831 200.396C222.734 200.128 222.681 199.849 222.681 199.634C222.681 198.903 223.271 198.388 224.056 198.388C224.732 198.388 225.108 198.688 225.334 199.44L228.052 207.723H228.095L230.812 199.43C231.038 198.699 231.425 198.388 232.102 198.388C232.864 198.388 233.401 198.893 233.401 199.602C233.401 199.816 233.348 200.117 233.251 200.375L229.502 210.408C228.471 213.244 227.289 214.232 225.012 214.232ZM235.238 210.118C234.368 210.118 233.691 209.441 233.691 208.571C233.691 207.712 234.368 207.024 235.238 207.024C236.098 207.024 236.774 207.712 236.774 208.571C236.774 209.441 236.098 210.118 235.238 210.118Z" fill="#9D9D9D"/>
<path d="M128.508 0.00616615C126.802 -0.0585245 125.186 0.393408 124.123 1.00408C121.82 2.19112 120.243 4.60625 120.245 7.9666C120.282 11.5255 121.574 14.4863 122.722 17.044C123.171 18.043 123.588 18.9833 123.94 19.8592C121.246 20.8525 118.573 22.3616 116.075 23.7913C114.007 24.9752 112.121 26.1382 110.646 26.9728C109.912 27.3915 108.997 27.8262 108.531 28.0348C108.493 26.7706 107.453 25.7548 106.178 25.7597H99.1563C99.1518 24.4715 98.1097 23.4297 96.8217 23.4251H66.3346C65.0466 23.4297 64.0046 24.4715 64 25.7597V65.6123C63.995 66.9072 65.0398 67.9605 66.3346 67.9651H96.8217C98.1164 67.9604 99.1612 66.9072 99.1563 65.6123H106.178C107.473 65.6172 108.531 64.5726 108.536 63.2777H110.87C113.122 63.2699 115.701 65.1744 117.297 66.2989C116.857 66.9499 116.422 67.5975 115.974 68.2581C110.095 76.9311 103.844 86.5491 103.844 99.5963C103.844 104.275 104.827 108.492 106.783 112.075C106.727 112.208 106.674 112.344 106.627 112.482C99.8902 112.449 94.544 112.481 88.5407 112.482C90.7714 109.995 92.1342 106.714 92.1342 103.126C92.1342 95.3864 85.8055 89.0587 78.0671 89.0587C70.3287 89.0587 64 95.3864 64 103.126C64 107.018 65.599 110.547 68.1748 113.096C65.7236 114.202 64 116.684 64 119.527V126.549C64 128.344 64.6896 129.995 65.8128 131.246C64.6899 132.493 64 134.139 64 135.933V142.955C64 146.81 67.1697 149.997 71.0221 150C83.2596 150.001 99.0373 150 108.536 150C112.388 149.997 115.558 146.81 115.558 142.955V135.933C115.558 134.139 114.868 132.493 113.745 131.246C114.545 130.355 115.126 129.259 115.393 128.055C117.845 130.383 120.89 133.234 124.123 136.139C127.835 139.475 131.716 142.823 135.059 145.377C138.784 148.112 141.521 149.977 143.688 150C147.724 150 154.6 148.788 161.055 147.611C164.282 147.022 167.352 146.441 169.757 146.004C171.223 145.706 172.794 145.494 174.152 145.308L176.486 145.317C176.491 146.621 177.549 147.666 178.844 147.661H185.866C185.871 148.954 186.923 150.005 188.219 150H211.643C212.944 150.005 214.005 148.944 214 147.642V110.147C214.005 108.846 212.944 107.789 211.643 107.794H188.219C186.917 107.79 185.861 108.846 185.866 110.147H178.844C177.549 110.142 176.491 111.187 176.486 112.482V113.869C174.511 113.329 172.853 112.738 171.181 112.134C173.158 108.539 174.152 104.301 174.152 99.596C174.152 86.7319 168.097 77.2192 162.277 68.6286C163.801 67.3359 164.777 65.4134 164.777 63.2774C164.777 61.4839 164.09 59.8314 162.968 58.5808C164.089 57.3344 164.777 55.6901 164.777 53.8979C164.777 52.1047 164.09 50.4565 162.968 49.2058C164.09 47.9592 164.777 46.3161 164.777 44.523C164.777 41.22 162.448 38.4082 159.357 37.6703C161.266 33.7591 159.149 30.3284 156.784 28.5838C156.754 28.5596 155.383 27.4769 153.401 26.0478C153.632 23.717 154.497 20.8274 155.434 17.9226C156.529 14.5269 157.75 11.1502 157.75 7.87016C157.75 4.5788 156.143 2.23119 153.703 0.967151C151.639 -0.102231 149.099 -0.152422 147.56 0.257934C144.466 0.947519 142.408 2.94914 140.396 4.70736C139.892 5.14784 139.394 5.58001 138.872 5.99824C136.275 3.88406 134.227 1.32931 130.229 0.257934C129.659 0.109085 129.077 0.0277302 128.508 0.00616615ZM149.41 4.69362C150.224 4.66404 151.029 4.87321 151.575 5.15596C152.189 5.46935 153.062 6.11042 153.062 7.87047C153.062 9.84108 152.075 13.0674 150.971 16.4901C150.281 18.6265 149.547 20.8533 149.094 23.1047C147.597 22.1437 146.036 21.212 144.516 20.4497C142.627 19.5021 140.912 18.7377 138.968 18.7377C135.559 18.7446 131.94 18.7063 128.595 18.7697C127.965 17.1987 127.319 15.8446 126.7 14.4622C128.841 14.758 131.442 14.4913 134.702 13.6154C138.725 12.2841 141.396 10.0374 143.477 8.21837C145.558 6.3993 147.03 5.15062 148.599 4.80806C148.863 4.73859 149.138 4.70348 149.41 4.69362ZM190.526 18.756C189.187 18.7935 188.223 19.8225 188.219 21.0906V23.4251C188.214 24.7201 189.258 25.7736 190.553 25.778C191.855 25.7832 192.911 24.7269 192.906 23.4251V21.0906C192.902 19.7956 191.85 18.7509 190.526 18.756ZM129.327 23.4251H138.968C142.094 23.607 149.857 29.2087 153.937 32.3011C155.364 33.3727 155.641 34.5495 155.228 35.4551C154.814 36.3606 153.495 37.4784 150.678 37.4784C148.849 37.4784 146.726 36.8357 144.635 36.0776C142.544 35.3195 140.612 34.3898 138.345 34.361C137.497 34.3514 136.708 34.806 136.285 35.542C134.879 37.9776 133.78 38.8182 132.532 39.2957C131.284 39.7731 129.597 39.8312 127.254 39.8312C125.959 39.8261 124.905 40.8708 124.901 42.1658C124.896 43.4414 125.91 44.4823 127.176 44.5187C126.584 50.9669 123.617 56.6133 119.898 62.385C117.04 60.4993 114.62 58.6381 110.87 58.5856H108.536V32.8046C109.572 32.7974 110.099 32.4972 110.765 32.1958C111.439 31.8907 112.149 31.5061 112.944 31.056C114.535 30.1558 116.421 28.9977 118.414 27.8563C122.402 25.5733 127.014 23.4764 129.327 23.4251ZM199.869 25.746C198.568 25.813 197.593 26.8444 197.598 28.0989V30.4334C197.603 31.7217 198.645 32.7636 199.933 32.768C201.228 32.7732 202.281 31.7284 202.286 30.4334V28.0989C202.291 26.7971 201.232 25.7408 199.869 25.746ZM181.151 25.778C179.861 25.8142 178.848 26.8491 178.844 28.1172V30.4701C178.848 31.7583 179.89 32.8002 181.178 32.8047C182.473 32.8098 183.527 31.7651 183.531 30.4701V28.1172C183.527 26.8222 182.475 25.7729 181.151 25.778ZM99.1563 30.4517H103.844V60.9202H99.1563V30.4517ZM190.553 35.1255C182.815 35.1255 176.486 41.4532 176.486 49.1924C176.486 56.9316 182.815 63.2594 190.553 63.2594C198.292 63.2594 204.62 56.9316 204.62 49.1924C204.62 41.4532 198.292 35.1255 190.553 35.1255ZM153.044 42.1658H157.75C159.089 42.1658 160.085 43.1842 160.085 44.5233C160.085 45.8624 159.089 46.8578 157.75 46.8578H153.044C151.705 46.8578 150.71 45.8624 150.71 44.5233C150.71 43.1842 151.705 42.1658 153.044 42.1658ZM153.044 51.5453H157.75C159.089 51.5453 160.085 52.5591 160.085 53.8982C160.085 55.2373 159.089 56.2327 157.75 56.2328H153.044C151.705 56.2328 150.71 55.2373 150.71 53.8982C150.71 52.5591 151.705 51.5453 153.044 51.5453ZM153.044 60.9202H157.75C159.089 60.9202 160.085 61.9386 160.085 63.2777C160.085 64.6168 159.089 65.6123 157.75 65.6123H153.044C151.705 65.6123 150.71 64.6168 150.71 63.2777C150.71 61.9386 151.705 60.9202 153.044 60.9202ZM138.94 67.9834C140.295 67.9879 141.335 69.0414 141.33 70.3363V72.6709H143.688C147.542 72.6709 150.71 75.8563 150.71 79.7112C150.705 80.9995 149.663 82.0459 148.375 82.0504C147.08 82.0555 146.027 81.0062 146.022 79.7112C146.022 78.3722 145.026 77.3584 143.688 77.3584H141.33V86.7424H143.688C147.542 86.7424 150.71 89.9277 150.71 93.7828V98.4702C150.71 102.325 147.542 105.497 143.688 105.497H141.33V107.831C141.335 109.126 140.295 110.18 139 110.184C137.698 110.189 136.642 109.133 136.647 107.831V105.497H134.312C130.458 105.497 127.29 102.325 127.29 98.4702C127.285 97.1753 128.33 96.1218 129.625 96.1173C130.927 96.1122 131.983 97.1685 131.978 98.4702C131.978 99.8094 132.974 100.805 134.312 100.805H136.647V91.4299H134.312C130.458 91.4299 127.29 88.2584 127.29 84.4033V79.7112C127.29 75.8562 130.458 72.6709 134.312 72.6709H136.647V70.3363C136.642 69.0753 137.636 68.042 138.94 67.9834ZM78.003 72.6709C76.6959 72.7295 75.7092 73.7627 75.7142 75.0238V77.3584C75.7091 78.6601 76.7655 79.7164 78.0671 79.7112C79.3619 79.7068 80.4068 78.6533 80.4017 77.3584V75.0238C80.4068 73.7288 79.3596 72.6753 78.003 72.6709ZM134.312 77.3584C132.974 77.3584 131.978 78.3723 131.978 79.7112V84.4033C131.978 85.7424 132.974 86.7424 134.312 86.7424H136.647V77.3584H134.312ZM87.3826 79.6792C86.0841 79.7371 85.0935 80.7638 85.0892 82.0183V84.3712C85.0936 85.6662 86.1473 86.7109 87.4421 86.7058C88.7302 86.7013 89.7723 85.6594 89.7767 84.3712V82.0183C89.7722 80.7301 88.7302 79.6836 87.3826 79.6792ZM68.6555 79.7113C67.3587 79.7383 66.339 80.7756 66.3346 82.0504V84.4033C66.3391 85.6983 67.3927 86.7475 68.6875 86.7424C69.9756 86.738 71.0177 85.6915 71.0221 84.4033V82.0504C71.0177 80.7622 69.9733 79.7157 68.6555 79.7113ZM141.33 91.4299V100.805H143.688C145.027 100.805 146.022 99.8093 146.022 98.4702V93.7828C146.022 92.4438 145.026 91.4299 143.688 91.4299H141.33ZM114.056 112.478C114.632 112.489 115.252 112.574 115.851 112.743L137.366 118.818C136.656 120.285 136.44 121.999 136.89 123.679C137.887 127.404 141.776 129.658 145.5 128.659L159.082 125.011C160.335 124.678 161.079 123.388 160.744 122.136C160.41 120.884 159.125 120.143 157.874 120.479L144.292 124.128C142.999 124.474 141.764 123.763 141.417 122.466C141.07 121.17 141.786 119.942 143.157 119.568C143.157 119.568 146.713 118.35 150.902 117.156C155.091 115.962 160.157 114.821 162.442 114.821C164.58 114.821 167.305 115.701 170.123 116.721C172.202 117.473 174.308 118.31 176.486 118.699V140.621H174.152C172.345 140.715 170.556 141.096 168.929 141.381C166.489 141.824 163.411 142.426 160.208 143.01C153.802 144.179 146.681 145.308 143.688 145.308C141.806 144.568 139.538 142.852 137.892 141.642C134.729 139.225 130.915 135.951 127.254 132.66C122.437 128.354 117.757 123.85 113.118 119.372C111.074 117.611 110.512 116.064 111.058 114.025C111.438 112.779 112.786 112.459 114.056 112.478ZM181.178 114.84H185.866V142.974H181.178V114.84ZM71.0221 117.174H75.7142V121.825C75.7091 123.127 76.7655 124.183 78.0671 124.178C79.3619 124.174 80.4068 123.12 80.4017 121.825V117.174H87.4421V121.825C87.437 123.12 88.4818 124.174 89.7767 124.178C91.0783 124.183 92.1393 123.127 92.1342 121.825V117.174H99.1563V121.825C99.1511 123.12 100.196 124.174 101.491 124.178C102.792 124.183 103.849 123.127 103.844 121.825V117.174H106.343C107.011 119.6 107.74 120.814 110.87 123.716V126.549C110.87 127.888 109.877 128.906 108.536 128.907H71.0313C69.6883 128.898 68.6875 127.883 68.6875 126.549V119.527C68.6875 118.188 69.6832 117.174 71.0221 117.174ZM71.0221 133.599C72.5527 133.599 74.0922 133.599 75.7142 133.599V138.286C75.7186 139.581 76.7723 140.626 78.0671 140.621C79.3552 140.616 80.3973 139.574 80.4017 138.286V133.599H87.4421V138.286C87.4465 139.574 88.4886 140.616 89.7767 140.621C91.0715 140.626 92.1297 139.581 92.1342 138.286V133.599H99.1563V138.286C99.1607 139.574 100.203 140.616 101.491 140.621C102.786 140.626 103.839 139.581 103.844 138.286V133.599H108.536C109.875 133.599 110.87 134.594 110.87 135.933V142.955C110.87 144.294 109.877 145.307 108.536 145.308C99.0415 145.308 83.2753 145.309 71.0313 145.308C69.6883 145.3 68.6875 144.289 68.6875 142.955V135.933C68.6875 134.594 69.6832 133.599 71.0221 133.599Z" fill="url(#paint0_linear_2013_2240)"/>
<defs>
<linearGradient id="paint0_linear_2013_2240" x1="139" y1="0" x2="139" y2="150" gradientUnits="userSpaceOnUse">
<stop stop-color="#C2C2C2"/>
<stop offset="0.34" stop-color="#C2C2C2" stop-opacity="0.8"/>
<stop offset="1" stop-color="#5C5C5C" stop-opacity="0"/>
</linearGradient>
</defs>
</svg>
